<svg width="274" height="351" viewBox="0 0 274 351" fill="none" xmlns="http://www.w3.org/2000/svg">
<path d="M69.0193 21.0426L259.332 302.89C266.839 314.008 260.517 329.148 245.213 336.703C229.908 344.258 211.413 341.369 203.906 330.251L13.5937 48.4039C6.08656 37.2861 12.4084 22.1464 27.7127 14.5913C43.017 7.0362 61.5122 9.92481 69.0193 21.0426Z" fill="#B611F1"/>
<path d="M13.9888 302.363L204.301 20.5152C211.808 9.39736 230.304 6.50875 245.608 14.0638C260.912 21.6189 267.234 36.7586 259.727 47.8764L69.4144 329.724C61.9073 340.842 43.4121 343.73 28.1078 336.175C12.8035 328.62 6.48167 313.48 13.9888 302.363Z" fill="#B611F1"/>
</svg>
