<svg width="512" height="512" viewBox="0 0 512 512" fill="none" xmlns="http://www.w3.org/2000/svg">
<path d="M177.312 96H489.688C502.009 96 512 110.328 512 128C512 145.672 502.009 160 489.688 160H177.312C164.991 160 155 145.672 155 128C155 110.328 164.991 96 177.312 96Z" fill="#B611F1"/>
<path d="M85.4375 224H483.562C499.267 224 512 238.328 512 256C512 273.672 499.267 288 483.562 288H85.4375C69.733 288 57 273.672 57 256C57 238.328 69.733 224 85.4375 224Z" fill="#B611F1"/>
<path d="M32 352H480C497.672 352 512 366.328 512 384C512 401.672 497.672 416 480 416H32C14.3281 416 0 401.672 0 384C0 366.328 14.3281 352 32 352Z" fill="#B611F1"/>
</svg>
