<svg width="229" height="114" viewBox="0 0 229 114" fill="none" xmlns="http://www.w3.org/2000/svg">
<path d="M54.4788 34.8448C54.8033 33.8692 55.1941 32.6176 55.6509 31.0902C56.1005 29.5766 56.689 28.1077 57.4092 26.7022C58.0772 25.3712 58.9511 24.1532 59.9987 23.0934C60.4736 22.6049 61.0438 22.2188 61.674 21.9588C62.3043 21.6987 62.9812 21.5703 63.6631 21.5815C64.1176 21.5815 64.5544 21.9067 64.9738 22.5571C65.3933 23.2074 65.608 24.3474 65.618 25.9771C65.621 28.0926 65.3918 30.202 64.9345 32.2676C64.4776 34.3159 63.9889 36.3804 63.4684 38.461C62.9478 40.5416 62.4591 42.6547 62.0023 44.8001C61.5426 46.9803 61.3136 49.2028 61.3188 51.4308C61.3188 52.0163 61.3512 53.0754 61.4162 54.6079C61.4812 56.1403 61.6109 57.8722 61.8057 59.8033C62.0017 61.7531 62.2949 63.7845 62.6857 65.8976C63.04 67.8748 63.5798 69.8145 64.2979 71.691C64.9819 73.4465 65.829 74.8929 66.8388 76.0305C67.2983 76.5755 67.8731 77.0119 68.5221 77.3081C69.1709 77.6045 69.8776 77.7534 70.5912 77.7443C72.8705 77.7443 74.7761 76.7364 76.3077 74.7205C77.8394 72.7045 79.2076 70.0552 80.4121 66.7722C81.7283 63.1153 82.8373 59.3873 83.7339 55.6058C84.7425 51.4458 85.866 47.2035 87.1043 42.879C88.3425 38.5544 89.7594 34.3613 91.3547 30.2997C92.95 26.2368 94.953 22.6449 97.3634 19.5239C97.8077 18.9337 98.3157 18.3941 98.8782 17.9148C99.5869 17.2626 100.378 16.7059 101.232 16.259C102.046 15.8367 102.762 15.7065 103.381 15.8684C104.001 16.0304 104.313 16.7294 104.318 17.9653C104.316 18.8762 104.183 19.782 103.921 20.6546C103.671 21.4985 103.378 22.3289 103.041 23.142C101.606 28.2128 100.352 32.584 99.277 36.2557C98.2022 39.9275 97.258 43.1131 96.444 45.813C95.6289 48.5117 94.8961 50.8683 94.2458 52.8829C93.5955 54.8975 92.9768 56.8155 92.3902 58.6371C91.6075 60.9096 90.6451 63.541 89.5029 66.5311C88.3698 69.5077 86.946 72.3659 85.2524 75.0643C83.6468 77.6594 81.6347 79.9807 79.2924 81.9398C77.1114 83.7889 74.3364 84.7926 71.475 84.7674C68.2169 84.7674 65.5786 83.9221 63.5601 82.2314C61.5072 80.4961 59.8851 78.3096 58.821 75.8436C57.6524 73.1704 56.8493 70.3526 56.4336 67.4656C55.9981 64.6724 55.7374 61.8551 55.6528 59.0296C54.4902 61.4514 53.2021 63.8112 51.7937 66.0994C50.2066 68.7205 48.3746 71.1859 46.3224 73.4627C44.3251 75.6926 42.0223 77.6297 39.4824 79.2169C37.1055 80.7385 34.3425 81.5504 31.5189 81.5567C28.523 81.5567 25.9502 80.6143 23.8006 78.7291C21.6511 76.844 19.841 74.4059 18.3706 71.4145C16.8305 68.2107 15.6669 64.84 14.9028 61.3694C14.0641 57.715 13.4116 54.0205 12.948 50.3002C12.4911 46.6284 12.1977 43.183 12.0679 39.9635C11.9381 36.7441 11.8757 34.1277 11.8807 32.1144C11.8782 30.1244 12.0083 28.1365 12.2701 26.1639C12.5356 24.1934 13.1299 22.2814 14.0284 20.5069C14.1747 20.2528 14.338 20.0087 14.5171 19.7762C14.8005 19.3946 15.1135 19.0359 15.4533 18.7035C15.7778 18.3733 16.1203 18.0614 16.4794 17.7691C16.7481 17.5329 17.0897 17.3957 17.4474 17.3803C17.7732 17.3803 18.0335 17.6401 18.2283 18.1596C18.441 18.7876 18.5406 19.4482 18.5222 20.1107C18.5181 21.9652 18.3052 23.8131 17.8875 25.6201C17.463 27.4727 17.2515 29.6344 17.2527 32.105C17.2527 33.3409 17.3507 35.2428 17.5467 37.8106C17.7427 40.3784 18.0547 43.2228 18.4829 46.3438C18.9061 49.4586 19.4598 52.6605 20.1438 55.9497C20.7667 59.0257 21.6492 62.0433 22.782 64.9707C23.8568 67.7016 25.1108 69.9282 26.5438 71.6499C27.9768 73.3717 29.6376 74.2332 31.5264 74.2346C33.6759 74.2346 35.6789 73.4708 37.535 71.9433C39.3912 70.4159 41.0846 68.4492 42.615 66.0434C44.2335 63.4674 45.6369 60.7626 46.8111 57.9569C48.0806 54.9667 49.1878 52.0089 50.1328 49.0835C51.0779 46.1582 51.9055 43.4271 52.6157 40.8905C53.336 38.355 53.9569 36.3398 54.4788 34.8448Z" fill="#B611F1"/>
<path d="M104.6 60.491C104.552 60.7269 104.452 60.9494 104.308 61.1431C104.165 61.3367 103.981 61.4968 103.769 61.6123C103.369 61.8319 102.903 61.8983 102.458 61.7992C102.026 61.7173 101.641 61.4733 101.384 61.1171C101.124 60.7607 101.124 60.2892 101.384 59.7024L101.97 58.0447C101.403 57.5018 101.055 56.7705 100.992 55.9889C100.923 55.2358 101.058 54.478 101.384 53.7949C101.713 53.1076 102.198 52.5067 102.801 52.0401C103.395 51.5611 104.138 51.3028 104.902 51.3093C106.275 51.3093 107.024 51.8134 107.149 52.8212C107.274 53.8291 107.078 54.9504 106.563 56.1852C106.953 56.3808 107.589 56.4132 108.469 56.2824C109.295 56.1586 110.127 56.0775 110.961 56.0394C111.641 55.9906 112.32 56.1489 112.908 56.4935C113.429 56.82 113.559 57.5676 113.3 58.7362C113.04 59.9048 112.763 61.3027 112.468 62.9299C112.175 64.5496 111.963 66.0938 111.834 67.5627C111.701 68.8108 111.701 70.0692 111.834 71.3173C111.959 72.3577 112.317 72.8778 112.908 72.8778C113.299 72.8778 113.804 72.3091 114.423 71.1715C115.042 70.0339 115.678 68.7177 116.329 67.2226C116.98 65.7275 117.566 64.2162 118.088 62.6888C118.498 61.5606 118.825 60.4037 119.065 59.2277C119.19 58.5786 119.467 58.1232 119.896 57.8615C120.286 57.6117 120.745 57.4919 121.207 57.5195C121.425 57.5324 121.638 57.5913 121.832 57.692C122.025 57.7929 122.195 57.9335 122.331 58.1045C122.624 58.462 122.738 58.966 122.673 59.6164C122.607 59.9429 122.444 60.6418 122.184 61.7132C121.925 62.7847 121.567 63.9876 121.11 65.322C120.653 66.655 120.099 68.0529 119.449 69.5157C118.817 70.9457 118.031 72.3031 117.105 73.5636C116.273 74.721 115.248 75.7274 114.075 76.5388C112.985 77.2778 111.681 77.636 110.366 77.5574C108.803 77.4914 107.663 76.7924 106.947 75.4605C106.23 74.1286 105.774 72.5358 105.578 70.6819C105.385 68.7166 105.434 66.7352 105.724 64.7819C105.965 62.9286 106.374 61.1008 106.945 59.3211C106.623 59.3858 106.295 59.4183 105.967 59.4183H104.99C104.793 59.748 104.661 60.112 104.6 60.491Z" fill="#B611F1"/>
<path d="M119.159 56.103C119.159 54.543 119.566 53.4703 120.379 52.8848C121.149 52.3112 122.116 52.0659 123.066 52.2027C124.032 52.3277 124.927 52.774 125.607 53.4697C125.954 53.8039 126.209 54.222 126.346 54.6836C126.483 55.145 126.498 55.6339 126.39 56.103C126.129 57.2729 125.885 58.7356 125.658 60.491C125.431 62.2464 125.284 63.9366 125.218 65.5612C125.143 66.9606 125.192 68.3639 125.364 69.7549C125.526 70.9248 125.901 71.5098 126.487 71.5098C126.878 71.5098 127.351 71.0057 127.905 69.9979C128.522 68.8517 129.06 67.6655 129.517 66.447C130.038 65.0766 130.526 63.711 130.983 62.3505C131.343 61.3301 131.637 60.2877 131.863 59.2295C132.059 58.5805 132.385 58.1443 132.841 57.9213C133.242 57.7062 133.706 57.6401 134.151 57.7345C134.586 57.8399 134.968 58.0996 135.226 58.4652C135.519 58.8552 135.568 59.343 135.372 59.9285C135.241 60.3185 135.029 61.0498 134.737 62.1225C134.445 63.1952 134.071 64.3788 133.614 65.6733C133.161 66.9666 132.625 68.3116 132.007 69.7082C131.437 71.0224 130.716 72.2659 129.858 73.4141C129.13 74.4072 128.218 75.2518 127.171 75.9016C126.691 76.1905 126.156 76.3746 125.601 76.442C125.045 76.5093 124.481 76.4583 123.946 76.2922C122.188 75.7726 120.934 74.8139 120.185 73.416C119.436 72.0181 118.999 70.3928 118.874 68.5402C118.746 66.5263 118.762 64.5059 118.923 62.4944C119.079 60.3153 119.157 58.1849 119.159 56.103Z" fill="#B611F1"/>
<path d="M132.251 54.5425C132.447 53.243 133 52.2681 133.912 51.6177C134.719 51.0088 135.681 50.6373 136.688 50.545C137.561 50.4639 138.436 50.6693 139.181 51.1299C139.897 51.5859 140.191 52.3011 140.061 53.2754C139.93 54.1861 139.751 55.2102 139.523 56.3478C139.296 57.4853 139.085 58.6227 138.889 59.7603C138.693 60.899 138.546 61.9717 138.449 62.9785C138.353 63.8041 138.337 64.6371 138.4 65.4659C138.872 63.8426 139.478 62.261 140.212 60.7377C140.807 59.4945 141.509 58.3063 142.313 57.1869C142.883 56.5019 143.625 55.9804 144.463 55.675C145.299 55.3317 146.197 55.1657 147.101 55.1872C147.948 55.2208 148.634 55.4644 149.161 55.9179C149.688 56.3715 149.786 57.0219 149.455 57.869C149.196 58.7618 149.016 59.6753 148.917 60.5994C148.754 61.8411 148.672 63.0923 148.672 64.3446C148.659 65.4502 148.722 66.5552 148.859 67.6525C148.984 68.5957 149.212 69.0672 149.543 69.0672C149.934 69.0672 150.455 68.7097 151.106 67.9944C151.827 67.1875 152.481 66.3231 153.061 65.4098C153.728 64.3743 154.331 63.2995 154.868 62.1917C155.349 61.2316 155.757 60.2372 156.089 59.2165C156.214 58.6309 156.491 58.2409 156.92 58.0466C157.299 57.8619 157.725 57.7967 158.141 57.8597C158.338 57.8948 158.526 57.9688 158.694 58.0778C158.862 58.1865 159.006 58.3278 159.119 58.4932C159.378 58.8507 159.441 59.3224 159.306 59.9079C159.11 60.8186 158.654 62.0539 157.937 63.6139C157.21 65.2013 156.366 66.733 155.413 68.1963C154.486 69.6258 153.403 70.9476 152.183 72.1377C151.011 73.2764 149.871 73.8453 148.764 73.844C146.874 73.844 145.522 73.3399 144.708 72.3321C143.901 71.3421 143.348 70.1709 143.096 68.9195C142.839 67.7052 142.74 66.4626 142.802 65.2229C142.866 64.0207 142.833 63.2569 142.705 62.9317C142.378 63.0625 142.036 63.518 141.679 64.2979C141.279 65.1856 140.937 66.0974 140.652 67.0283C140.325 68.0686 140.032 69.1574 139.772 70.295C139.543 71.2412 139.38 72.2024 139.284 73.1712C139.232 73.5694 139.087 73.9497 138.859 74.2805C138.631 74.6115 138.327 74.8832 137.973 75.0737C137.231 75.494 136.392 75.7124 135.539 75.7072C134.686 75.719 133.849 75.4813 133.131 75.0232C132.413 74.5696 132.087 73.8546 132.153 72.8778C132.217 71.7727 132.217 70.4402 132.153 68.8803C132.09 67.3204 132.027 65.6789 131.966 63.9559C131.9 62.2341 131.868 60.5602 131.869 58.9343C131.851 57.4614 131.979 55.9903 132.251 54.5425Z" fill="#00F0FF"/>
<path d="M156.186 56.1029C156.186 54.543 156.593 53.4703 157.407 52.8848C158.177 52.3112 159.143 52.0659 160.094 52.2027C161.06 52.3277 161.955 52.774 162.635 53.4697C162.982 53.8041 163.236 54.2223 163.373 54.6837C163.51 55.1452 163.524 55.6341 163.416 56.1029C163.155 57.2728 162.911 58.7356 162.684 60.491C162.457 62.2464 162.31 63.9366 162.244 65.5612C162.169 66.9606 162.218 68.3639 162.39 69.7549C162.552 70.9248 162.926 71.5097 163.513 71.5097C163.904 71.5097 164.376 71.0057 164.931 69.9978C165.547 68.8517 166.086 67.6655 166.543 66.447C167.063 65.0766 167.552 63.711 168.009 62.3505C168.369 61.3301 168.663 60.2877 168.889 59.2295C169.085 58.5805 169.411 58.1443 169.866 57.9213C170.267 57.7062 170.732 57.6401 171.177 57.7344C171.612 57.8399 171.994 58.0996 172.252 58.4652C172.545 58.8552 172.594 59.343 172.398 59.9285C172.267 60.3185 172.055 61.0498 171.763 62.1225C171.471 63.1952 171.097 64.3788 170.64 65.6733C170.183 66.974 169.645 68.3234 169.027 69.7213C168.457 71.0354 167.736 72.279 166.878 73.4272C166.15 74.4203 165.238 75.2648 164.191 75.9146C163.712 76.2035 163.176 76.3876 162.621 76.4551C162.065 76.5224 161.501 76.4714 160.967 76.3052C159.208 75.7857 157.954 74.827 157.205 73.4291C156.456 72.0312 156.019 70.4058 155.894 68.5532C155.766 66.5394 155.782 64.5189 155.943 62.5075C156.105 60.3196 156.186 58.1848 156.186 56.1029Z" fill="#B611F1"/>
<path d="M177.779 73.8515C175.369 73.8515 173.447 73.2342 172.014 71.9994C170.597 70.7912 169.562 69.1988 169.033 67.4151C168.471 65.4854 168.305 63.4621 168.544 61.4666C168.746 59.4176 169.308 57.4203 170.205 55.5666C171.025 53.8544 172.209 52.3404 173.673 51.1299C175.105 49.96 176.798 49.4399 178.753 49.5694C181.032 49.7003 182.889 50.3856 184.322 51.6252C185.748 52.8526 186.827 54.433 187.449 56.2076C188.104 58.0654 188.387 60.0341 188.28 62.0011C188.201 63.9792 187.722 65.9208 186.87 67.7085C186.05 69.4322 184.83 70.9364 183.312 72.0966C181.773 73.2665 179.929 73.8515 177.779 73.8515ZM179.049 69.4634C179.765 69.5294 180.351 69.1881 180.807 68.4393C181.263 67.6904 181.588 66.7156 181.784 65.5145C181.986 64.2084 182.067 62.8865 182.028 61.5656C182.006 60.2172 181.843 58.875 181.541 57.5607C181.302 56.4625 180.89 55.4091 180.32 54.4397C179.798 53.595 179.18 53.1726 178.465 53.1726C177.813 53.1726 177.259 53.5626 176.804 54.3425C176.3 55.2534 175.954 56.242 175.778 57.2673C175.54 58.5371 175.425 59.827 175.435 61.119C175.424 62.4316 175.554 63.7417 175.823 65.0267C176.035 66.1099 176.432 67.149 176.995 68.0991C177.518 68.9439 178.203 69.3985 179.051 69.4634H179.049Z" fill="#B611F1"/>
<path d="M191.066 54.5425C191.263 53.243 191.815 52.2681 192.727 51.6177C193.536 51.0075 194.5 50.636 195.511 50.545C196.384 50.4639 197.258 50.6693 198.004 51.1299C198.721 51.5859 199.013 52.3011 198.884 53.2754C198.753 54.1861 198.573 55.2102 198.346 56.3478C198.12 57.4853 197.908 58.6227 197.711 59.7603C197.515 60.899 197.369 61.9717 197.271 62.9784C197.176 63.8041 197.159 64.637 197.223 65.4659C197.693 63.842 198.297 62.2599 199.03 60.7358C199.623 59.4927 200.327 58.3044 201.131 57.185C201.7 56.5001 202.443 55.9785 203.28 55.6731C204.117 55.3298 205.014 55.1638 205.918 55.1853C206.765 55.219 207.452 55.4625 207.978 55.9161C208.504 56.3696 208.603 57.02 208.272 57.8671C208.014 58.7599 207.834 59.6734 207.735 60.5975C207.572 61.8424 207.489 63.0966 207.491 64.352C207.478 65.4601 207.54 66.5678 207.678 67.6674C207.804 68.6106 208.03 69.0821 208.362 69.0821C208.753 69.0821 209.274 68.7246 209.925 68.0094C210.646 67.1976 211.3 66.3282 211.878 65.4098C212.545 64.3743 213.148 63.2995 213.685 62.1917C214.166 61.2316 214.575 60.2372 214.906 59.2164C215.032 58.6309 215.309 58.2409 215.737 58.0466C216.116 57.8619 216.543 57.7967 216.958 57.8597C217.155 57.8948 217.344 57.9688 217.511 58.0778C217.679 58.1865 217.823 58.3278 217.936 58.4932C218.196 58.8507 218.258 59.3224 218.123 59.9079C217.926 60.8186 217.471 62.0539 216.754 63.6139C216.022 65.2018 215.172 66.7333 214.213 68.1963C213.292 69.625 212.214 70.9468 210.998 72.1377C209.826 73.2764 208.686 73.8452 207.579 73.8439C205.69 73.8439 204.338 73.3399 203.523 72.332C202.716 71.3421 202.162 70.1709 201.911 68.9195C201.653 67.702 201.556 66.4564 201.617 65.2136C201.681 64.0114 201.649 63.2476 201.52 62.9224C201.192 63.0532 200.852 63.5086 200.494 64.2885C200.095 65.1762 199.752 66.088 199.468 67.0189C199.14 68.0593 198.848 69.1481 198.588 70.2856C198.357 71.2318 198.195 72.193 198.099 73.1618C198.048 73.5601 197.902 73.9404 197.674 74.2712C197.446 74.6021 197.142 74.8739 196.788 75.0643C196.047 75.4846 195.208 75.7031 194.354 75.6978C193.508 75.7072 192.675 75.4702 191.961 75.0157C191.244 74.5621 190.918 73.8471 190.984 72.8703C191.047 71.7652 191.047 70.4327 190.984 68.8728C190.92 67.3129 190.858 65.6715 190.796 63.9484C190.731 62.2266 190.697 60.5527 190.699 58.9268C190.677 57.4569 190.8 55.9884 191.066 54.5425Z" fill="#B611F1"/>
<path d="M169.123 41.0456C169.123 44.4843 165.687 47.2708 161.446 47.2708C160.346 47.2719 159.255 47.0749 158.225 46.6895C157.488 47.2764 155.997 48.2276 154.009 48.2276C153.962 48.2282 153.916 48.2147 153.877 48.1891C153.838 48.1635 153.808 48.1269 153.79 48.0837C153.77 48.0409 153.765 47.9933 153.772 47.9471C153.781 47.9007 153.802 47.858 153.834 47.8239C153.849 47.809 155.102 46.4653 155.478 44.9571C154.411 43.8881 153.769 42.5276 153.769 41.0456C153.769 37.6069 157.205 34.8205 161.446 34.8205C165.687 34.8205 169.123 37.6051 169.123 41.0456Z" fill="#B611F1"/>
<path d="M124.182 34.8186C128.424 34.8186 131.859 37.605 131.859 41.0437C131.859 42.5276 131.217 43.8863 130.15 44.9552C130.524 46.4634 131.779 47.8071 131.794 47.8221C131.826 47.8561 131.848 47.8989 131.856 47.9452C131.864 47.9914 131.858 48.039 131.839 48.0818C131.821 48.1248 131.791 48.1616 131.751 48.1872C131.712 48.213 131.667 48.2263 131.62 48.2257C129.631 48.2257 128.141 47.2745 127.403 46.6877C126.373 47.073 125.282 47.27 124.182 47.2689C119.941 47.2689 116.505 44.4824 116.505 41.0437C116.505 37.605 119.941 34.8186 124.182 34.8186Z" fill="#B611F1"/>
<path d="M123 83C123.703 89.2228 126.017 92.6074 132.136 94.7298C141.427 97.943 157.579 95.3511 163 83.5998" stroke="#B611F1" stroke-width="8" stroke-miterlimit="10" stroke-linecap="round"/>
</svg>
