<?xml version="1.0" encoding="iso-8859-1"?>
<!-- Generator: Adobe Illustrator 16.0.0, SVG Export Plug-In . SVG Version: 6.00 Build 0)  -->
<!DOCTYPE svg PUBLIC "-//W3C//DTD SVG 1.1//EN" "http://www.w3.org/Graphics/SVG/1.1/DTD/svg11.dtd">
<svg version="1.1" id="Capa_1" xmlns="http://www.w3.org/2000/svg" xmlns:xlink="http://www.w3.org/1999/xlink" x="0px" y="0px"
	 width="30.998px" height="30.998px" viewBox="0 0 30.998 30.998" style="enable-background:new 0 0 30.998 30.998;"
	 xml:space="preserve">
<g>
	<g>
		<path d="M5.607,13.479c1.49,0,2.703-1.212,2.703-2.704c0-1.493-1.213-2.704-2.703-2.704c-1.492,0-2.705,1.211-2.705,2.704
			C2.902,12.268,4.115,13.479,5.607,13.479z"/>
		<path d="M20.321,11.415c0,1.492,1.213,2.703,2.703,2.703c1.491,0,2.705-1.211,2.705-2.703c0-1.494-1.214-2.705-2.705-2.705
			C21.534,8.71,20.321,9.921,20.321,11.415z"/>
		<polygon points="23.664,20.135 24.5,18.001 24.379,22.544 25.111,22.544 24.894,26.587 25.131,30.998 27.551,30.998 
			27.106,26.587 27.514,22.544 28.096,22.544 28.096,12.091 26.03,12.473 23.025,19.033 		"/>
		<path d="M9.844,7.532l-1.36,2.029l0.528-0.043c0.036-0.003,3.55-0.298,5.986-0.837c3.194-0.708,5.097-2.121,5.22-3.88
			c0.168-2.39-2.522-4.534-6-4.778C10.743-0.222,7.777,1.524,7.61,3.914C7.515,5.269,8.346,6.606,9.844,7.532z M14.183,0.532
			c3.196,0.224,5.675,2.123,5.528,4.232c-0.151,2.154-3.422,3.107-4.823,3.417c-1.841,0.41-4.314,0.675-5.386,0.779l1.069-1.596
			l-0.239-0.135C8.86,6.398,8.033,5.173,8.119,3.95C8.269,1.84,10.987,0.307,14.183,0.532z"/>
		<path d="M13.607,3.227c0.06-0.104,0.163-0.156,0.308-0.156c0.232,0,0.349,0.103,0.349,0.308c0,0.068-0.02,0.126-0.06,0.175
			c-0.04,0.049-0.09,0.09-0.148,0.123c-0.058,0.035-0.119,0.065-0.184,0.094C13.807,3.8,13.751,3.826,13.703,3.85
			c-0.117,0.063-0.205,0.145-0.265,0.24c-0.061,0.097-0.103,0.195-0.127,0.297c-0.024,0.1-0.036,0.198-0.036,0.295
			c0,0.093,0.002,0.169,0.006,0.229h1.115c0-0.068,0.005-0.13,0.015-0.182c0.01-0.052,0.028-0.099,0.051-0.139
			c0.024-0.04,0.059-0.079,0.103-0.114c0.044-0.037,0.101-0.072,0.168-0.109c0.101-0.051,0.2-0.103,0.296-0.153
			c0.097-0.051,0.184-0.113,0.262-0.19c0.079-0.075,0.142-0.171,0.19-0.285c0.049-0.115,0.072-0.266,0.072-0.45
			c-0.008-0.133-0.041-0.272-0.099-0.419c-0.059-0.146-0.15-0.282-0.275-0.404s-0.287-0.224-0.488-0.302s-0.448-0.118-0.742-0.118
			c-0.298,0-0.55,0.046-0.757,0.137c-0.208,0.09-0.377,0.208-0.51,0.353c-0.133,0.146-0.231,0.31-0.295,0.491
			c-0.064,0.184-0.103,0.37-0.115,0.559h1.261C13.522,3.45,13.547,3.331,13.607,3.227z"/>
		<rect x="13.209" y="5.26" width="1.254" height="1.194"/>
		<polygon points="13.417,20.096 13.887,20.141 13.938,19.596 14.479,19.646 14.522,19.175 13.979,19.125 14.029,18.583 
			13.558,18.54 13.509,19.083 12.965,19.032 12.923,19.503 13.465,19.553 		"/>
		<path d="M15.507,23.355l0.564-6.17l0.062-0.664l0.006-0.065l-1.399-1.682l-0.062,0.001l-0.005-0.007l-5.47-0.5l-0.375,4.104H7.591
			l0.008-4.492l-0.05,0.02v-0.02H6.527H4l-0.132,8.238H4.45l0.408,4.044l-0.446,4.411h2.42l0.238-4.411l-0.218-4.044h0.733
			l0.003-2.05h1.083l-0.241,2.64L15.507,23.355z M9.546,14.682l4.837,0.442l-0.138,1.509l1.482,0.137l-0.564,6.172l-6.319-0.576
			l0.209-2.295h0.628h0.151c0.351,0.923,1.26,1.543,2.376,1.646c1.518,0.14,2.842-0.728,2.98-2.243
			c0.139-1.519-0.983-2.865-2.5-3.004c-0.465-0.042-1.198,0.117-1.315,0.203c-0.119,0.086-0.104,0.311,0.107,0.235
			c0.214-0.077,0.767-0.22,1.185-0.183c1.375,0.127,2.393,1.348,2.267,2.725c-0.125,1.375-1.324,2.134-2.7,2.009
			c-1.375-0.126-2.416-1.09-2.29-2.466c0.04-0.436,0.331-1.096,0.421-1.176c0.089-0.08-0.097-0.318-0.193-0.172
			c-0.06,0.092-0.217,0.395-0.338,0.729H9.681H9.208L9.546,14.682z"/>
		<polygon points="11.676,19.296 12.541,19.376 12.587,18.859 11.723,18.782 11.749,18.511 12.754,18.604 12.805,18.048 
			11.132,17.896 10.935,20.061 11.602,20.12 		"/>
	</g>
</g>
<g>
</g>
<g>
</g>
<g>
</g>
<g>
</g>
<g>
</g>
<g>
</g>
<g>
</g>
<g>
</g>
<g>
</g>
<g>
</g>
<g>
</g>
<g>
</g>
<g>
</g>
<g>
</g>
<g>
</g>
</svg>
