<svg width="1223" height="610" viewBox="0 0 1223 610" fill="none" xmlns="http://www.w3.org/2000/svg">
<path d="M290.95 186.45C292.683 181.23 294.77 174.533 297.21 166.36C299.611 158.261 302.754 150.401 306.6 142.88C310.168 135.758 314.835 129.241 320.43 123.57C322.966 120.956 326.011 118.89 329.377 117.499C332.743 116.107 336.358 115.42 340 115.48C342.427 115.48 344.76 117.22 347 120.7C349.24 124.18 350.387 130.28 350.44 139C350.456 150.32 349.232 161.607 346.79 172.66C344.35 183.62 341.74 194.667 338.96 205.8C336.18 216.933 333.57 228.24 331.13 239.72C328.675 251.386 327.452 263.278 327.48 275.2C327.48 278.333 327.653 284 328 292.2C328.347 300.4 329.04 309.667 330.08 320C331.127 330.433 332.693 341.303 334.78 352.61C336.672 363.19 339.555 373.569 343.39 383.61C347.043 393.003 351.567 400.743 356.96 406.83C359.414 409.746 362.484 412.081 365.95 413.666C369.415 415.252 373.189 416.049 377 416C389.173 416 399.35 410.607 407.53 399.82C415.71 389.033 423.017 374.857 429.45 357.29C436.479 337.722 442.402 317.774 447.19 297.54C452.577 275.28 458.577 252.58 465.19 229.44C471.803 206.3 479.37 183.863 487.89 162.13C496.41 140.39 507.107 121.17 519.98 104.47C522.353 101.312 525.066 98.4247 528.07 95.86C531.855 92.3698 536.081 89.3911 540.64 87C544.987 84.74 548.813 84.0433 552.12 84.91C555.427 85.7767 557.093 89.5167 557.12 96.13C557.113 101.004 556.399 105.851 555 110.52C553.669 115.036 552.1 119.479 550.3 123.83C542.64 150.963 535.94 174.353 530.2 194C524.46 213.647 519.417 230.693 515.07 245.14C510.717 259.58 506.803 272.19 503.33 282.97C499.857 293.75 496.553 304.013 493.42 313.76C489.24 325.92 484.1 340 478 356C471.949 371.927 464.345 387.221 455.3 401.66C446.725 415.546 435.979 427.967 423.47 438.45C411.822 448.344 397.002 453.715 381.72 453.58C364.32 453.58 350.23 449.057 339.45 440.01C328.486 430.725 319.823 419.025 314.14 405.83C307.899 391.526 303.61 376.448 301.39 361C299.064 346.054 297.672 330.979 297.22 315.86C291.011 328.819 284.132 341.446 276.61 353.69C268.134 367.715 258.35 380.907 247.39 393.09C236.723 405.022 224.425 415.387 210.86 423.88C198.166 432.022 183.41 436.366 168.33 436.4C152.33 436.4 138.59 431.357 127.11 421.27C115.63 411.183 105.963 398.137 98.11 382.13C89.8852 364.987 83.6706 346.951 79.59 328.38C75.1107 308.826 71.6262 289.057 69.15 269.15C66.71 249.503 65.1433 231.067 64.45 213.84C63.7567 196.613 63.4233 182.613 63.45 171.84C63.4369 161.192 64.1318 150.555 65.53 140C66.948 129.456 70.1219 119.225 74.92 109.73C75.7017 108.37 76.5736 107.064 77.53 105.82C79.0435 103.778 80.7153 101.859 82.53 100.08C84.2629 98.3134 86.0924 96.6442 88.01 95.08C89.4452 93.8165 91.2697 93.0824 93.18 93C94.92 93 96.31 94.39 97.35 97.17C98.4864 100.53 99.0179 104.065 98.92 107.61C98.8982 117.533 97.761 127.421 95.53 137.09C93.2633 147.003 92.1333 158.57 92.14 171.79C92.14 178.403 92.6633 188.58 93.71 202.32C94.7567 216.06 96.4233 231.28 98.71 247.98C100.97 264.647 103.927 281.78 107.58 299.38C110.907 315.839 115.62 331.986 121.67 347.65C127.41 362.263 134.107 374.177 141.76 383.39C149.413 392.603 158.283 397.213 168.37 397.22C179.85 397.22 190.547 393.133 200.46 384.96C210.373 376.787 219.417 366.263 227.59 353.39C236.234 339.606 243.729 325.133 250 310.12C256.78 294.12 262.693 278.293 267.74 262.64C272.787 246.987 277.207 232.373 281 218.8C284.847 205.233 288.163 194.45 290.95 186.45Z" fill="#D96DFF"/>
<path d="M558.63 323.68C558.37 324.942 557.838 326.133 557.071 327.169C556.304 328.205 555.321 329.062 554.19 329.68C552.056 330.855 549.567 331.21 547.19 330.68C544.88 330.242 542.826 328.936 541.45 327.03C540.063 325.123 540.063 322.6 541.45 319.46L544.58 310.59C541.553 307.685 539.696 303.772 539.36 299.59C538.992 295.56 539.713 291.505 541.45 287.85C543.207 284.172 545.799 280.957 549.02 278.46C552.195 275.897 556.16 274.515 560.24 274.55C567.573 274.55 571.573 277.247 572.24 282.64C572.907 288.033 571.863 294.033 569.11 300.64C571.197 301.687 574.59 301.86 579.29 301.16C583.701 300.498 588.144 300.064 592.6 299.86C596.233 299.599 599.859 300.446 603 302.29C605.78 304.037 606.477 308.037 605.09 314.29C603.703 320.543 602.223 328.023 600.65 336.73C599.083 345.397 597.953 353.66 597.26 361.52C596.554 368.198 596.554 374.932 597.26 381.61C597.927 387.177 599.84 389.96 603 389.96C605.087 389.96 607.783 386.917 611.09 380.83C614.397 374.743 617.79 367.7 621.27 359.7C624.743 351.7 627.873 343.613 630.66 335.44C632.853 329.403 634.597 323.213 635.88 316.92C636.547 313.447 638.027 311.01 640.32 309.61C642.4 308.273 644.852 307.632 647.32 307.78C648.484 307.849 649.621 308.164 650.655 308.703C651.689 309.243 652.597 309.995 653.32 310.91C654.887 312.823 655.497 315.52 655.15 319C654.797 320.747 653.927 324.487 652.54 330.22C651.153 335.953 649.24 342.39 646.8 349.53C644.36 356.663 641.403 364.143 637.93 371.97C634.554 379.622 630.356 386.885 625.41 393.63C620.967 399.823 615.494 405.208 609.23 409.55C603.41 413.504 596.444 415.421 589.42 415C581.073 414.647 574.987 410.907 571.16 403.78C567.333 396.653 564.897 388.13 563.85 378.21C562.819 367.694 563.081 357.092 564.63 346.64C565.918 336.723 568.1 326.943 571.15 317.42C569.432 317.766 567.683 317.94 565.93 317.94H560.71C559.658 319.704 558.952 321.652 558.63 323.68Z" fill="#D96DFF"/>
<path d="M636.38 300.2C636.38 291.853 638.553 286.113 642.9 282.98C647.011 279.911 652.172 278.598 657.25 279.33C662.407 279.999 667.188 282.387 670.82 286.11C672.674 287.898 674.033 290.135 674.765 292.605C675.498 295.074 675.579 297.69 675 300.2C673.607 306.46 672.303 314.287 671.09 323.68C669.877 333.073 669.093 342.117 668.74 350.81C668.342 358.298 668.603 365.807 669.52 373.25C670.387 379.51 672.387 382.64 675.52 382.64C677.607 382.64 680.13 379.943 683.09 374.55C686.384 368.417 689.26 362.07 691.7 355.55C694.48 348.217 697.09 340.91 699.53 333.63C701.453 328.17 703.023 322.592 704.23 316.93C705.277 313.457 707.017 311.123 709.45 309.93C711.592 308.779 714.072 308.425 716.45 308.93C718.774 309.494 720.814 310.884 722.19 312.84C723.757 314.927 724.017 317.537 722.97 320.67C722.27 322.757 721.14 326.67 719.58 332.41C718.02 338.15 716.02 344.483 713.58 351.41C711.16 358.33 708.3 365.527 705 373C701.953 380.032 698.101 386.686 693.52 392.83C689.633 398.144 684.761 402.663 679.17 406.14C676.61 407.686 673.752 408.671 670.784 409.032C667.816 409.392 664.805 409.119 661.95 408.23C652.557 405.45 645.86 400.32 641.86 392.84C637.86 385.36 635.527 376.663 634.86 366.75C634.174 355.974 634.261 345.163 635.12 334.4C635.953 322.74 636.373 311.34 636.38 300.2Z" fill="#D96DFF"/>
<path d="M706.3 291.85C707.347 284.897 710.303 279.68 715.17 276.2C719.482 272.942 724.618 270.954 730 270.46C734.659 270.026 739.333 271.125 743.31 273.59C747.137 276.03 748.703 279.857 748.01 285.07C747.31 289.943 746.353 295.423 745.14 301.51C743.927 307.597 742.797 313.683 741.75 319.77C740.703 325.863 739.92 331.603 739.4 336.99C738.891 341.408 738.804 345.865 739.14 350.3C741.662 341.614 744.899 333.151 748.82 325C751.993 318.348 755.747 311.99 760.04 306C763.084 302.335 767.045 299.544 771.52 297.91C775.985 296.073 780.783 295.185 785.61 295.3C790.13 295.48 793.797 296.783 796.61 299.21C799.423 301.637 799.947 305.117 798.18 309.65C796.798 314.427 795.838 319.315 795.31 324.26C794.436 330.904 793.998 337.599 794 344.3C793.932 350.216 794.266 356.129 795 362C795.667 367.047 796.883 369.57 798.65 369.57C800.737 369.57 803.52 367.657 807 363.83C810.851 359.512 814.343 354.887 817.44 350C820.999 344.459 824.221 338.708 827.09 332.78C829.657 327.643 831.837 322.322 833.61 316.86C834.277 313.727 835.757 311.64 838.05 310.6C840.071 309.612 842.346 309.263 844.57 309.6C845.622 309.788 846.627 310.184 847.523 310.767C848.42 311.349 849.191 312.105 849.79 312.99C851.177 314.903 851.51 317.427 850.79 320.56C849.743 325.433 847.307 332.043 843.48 340.39C839.596 348.884 835.091 357.08 830 364.91C825.051 372.559 819.265 379.632 812.75 386C806.49 392.093 800.403 395.137 794.49 395.13C784.397 395.13 777.177 392.433 772.83 387.04C768.52 381.743 765.565 375.476 764.22 368.78C762.849 362.282 762.321 355.633 762.65 349C762.99 342.567 762.817 338.48 762.13 336.74C760.383 337.44 758.557 339.877 756.65 344.05C754.518 348.8 752.687 353.679 751.17 358.66C749.423 364.227 747.857 370.053 746.47 376.14C745.244 381.203 744.372 386.346 743.86 391.53C743.586 393.661 742.808 395.696 741.591 397.466C740.373 399.237 738.752 400.691 736.86 401.71C732.898 403.959 728.415 405.128 723.86 405.1C719.308 405.163 714.837 403.891 711 401.44C707.167 399.013 705.427 395.187 705.78 389.96C706.12 384.047 706.12 376.917 705.78 368.57C705.44 360.223 705.107 351.44 704.78 342.22C704.427 333.007 704.253 324.05 704.26 315.35C704.167 307.469 704.851 299.597 706.3 291.85Z" fill="#00F0FF"/>
<path d="M834.13 300.2C834.13 291.853 836.303 286.113 840.65 282.98C844.761 279.911 849.922 278.598 855 279.33C860.157 279.999 864.938 282.387 868.57 286.11C870.422 287.899 871.779 290.137 872.51 292.606C873.241 295.075 873.32 297.691 872.74 300.2C871.347 306.46 870.043 314.287 868.83 323.68C867.617 333.073 866.833 342.117 866.48 350.81C866.082 358.298 866.343 365.807 867.26 373.25C868.127 379.51 870.127 382.64 873.26 382.64C875.347 382.64 877.87 379.943 880.83 374.55C884.124 368.417 887 362.07 889.44 355.55C892.22 348.217 894.83 340.91 897.27 333.63C899.193 328.17 900.763 322.592 901.97 316.93C903.017 313.457 904.757 311.123 907.19 309.93C909.332 308.779 911.812 308.425 914.19 308.93C916.514 309.494 918.554 310.884 919.93 312.84C921.497 314.927 921.757 317.537 920.71 320.67C920.01 322.757 918.88 326.67 917.32 332.41C915.76 338.15 913.76 344.483 911.32 351.41C908.88 358.37 906.01 365.59 902.71 373.07C899.663 380.102 895.811 386.756 891.23 392.9C887.343 398.214 882.471 402.733 876.88 406.21C874.321 407.756 871.462 408.741 868.494 409.102C865.526 409.462 862.515 409.189 859.66 408.3C850.267 405.52 843.57 400.39 839.57 392.91C835.57 385.43 833.237 376.733 832.57 366.82C831.884 356.044 831.971 345.233 832.83 334.47C833.697 322.763 834.13 311.34 834.13 300.2Z" fill="#D96DFF"/>
<path d="M949.45 395.17C936.577 395.17 926.313 391.867 918.66 385.26C911.092 378.795 905.562 370.274 902.74 360.73C899.736 350.404 898.849 339.578 900.13 328.9C901.205 317.936 904.207 307.249 909 297.33C913.38 288.168 919.699 280.067 927.52 273.59C935.167 267.33 944.21 264.547 954.65 265.24C966.823 265.94 976.737 269.607 984.39 276.24C992.01 282.808 997.769 291.264 1001.09 300.76C1004.59 310.701 1006.1 321.235 1005.53 331.76C1005.11 342.345 1002.55 352.734 998 362.3C993.62 371.523 987.107 379.572 979 385.78C970.78 392.04 960.93 395.17 949.45 395.17ZM956.23 371.69C960.057 372.043 963.187 370.217 965.62 366.21C968.053 362.203 969.793 356.987 970.84 350.56C971.916 343.571 972.351 336.498 972.14 329.43C972.024 322.215 971.152 315.033 969.54 308C968.263 302.124 966.063 296.487 963.02 291.3C960.233 286.78 956.93 284.52 953.11 284.52C949.63 284.52 946.673 286.607 944.24 290.78C941.552 295.654 939.7 300.944 938.76 306.43C937.49 313.225 936.877 320.127 936.93 327.04C936.872 334.064 937.566 341.074 939 347.95C940.136 353.746 942.253 359.306 945.26 364.39C948.053 368.91 951.713 371.343 956.24 371.69H956.23Z" fill="#D96DFF"/>
<path d="M1020.41 291.85C1021.46 284.897 1024.41 279.68 1029.28 276.2C1033.6 272.935 1038.75 270.947 1044.15 270.46C1048.81 270.026 1053.48 271.125 1057.46 273.59C1061.29 276.03 1062.85 279.857 1062.16 285.07C1061.46 289.943 1060.5 295.423 1059.29 301.51C1058.08 307.597 1056.95 313.683 1055.9 319.77C1054.85 325.863 1054.07 331.603 1053.55 336.99C1053.04 341.408 1052.95 345.865 1053.29 350.3C1055.8 341.611 1059.03 333.145 1062.94 324.99C1066.11 318.338 1069.87 311.98 1074.16 305.99C1077.2 302.325 1081.17 299.534 1085.64 297.9C1090.11 296.063 1094.9 295.175 1099.73 295.29C1104.25 295.47 1107.92 296.773 1110.73 299.2C1113.54 301.627 1114.07 305.107 1112.3 309.64C1110.92 314.417 1109.96 319.305 1109.43 324.25C1108.56 330.911 1108.12 337.622 1108.13 344.34C1108.06 350.269 1108.39 356.196 1109.13 362.08C1109.8 367.127 1111.01 369.65 1112.78 369.65C1114.87 369.65 1117.65 367.737 1121.13 363.91C1124.98 359.566 1128.47 354.914 1131.56 350C1135.12 344.459 1138.34 338.708 1141.21 332.78C1143.78 327.643 1145.96 322.322 1147.73 316.86C1148.4 313.727 1149.88 311.64 1152.17 310.6C1154.19 309.612 1156.47 309.263 1158.69 309.6C1159.74 309.788 1160.75 310.184 1161.64 310.767C1162.54 311.349 1163.31 312.105 1163.91 312.99C1165.3 314.903 1165.63 317.427 1164.91 320.56C1163.86 325.433 1161.43 332.043 1157.6 340.39C1153.69 348.887 1149.15 357.082 1144.03 364.91C1139.11 372.555 1133.35 379.628 1126.86 386C1120.6 392.093 1114.51 395.137 1108.6 395.13C1098.51 395.13 1091.29 392.433 1086.94 387.04C1082.63 381.743 1079.67 375.476 1078.33 368.78C1076.95 362.265 1076.43 355.6 1076.76 348.95C1077.1 342.517 1076.93 338.43 1076.24 336.69C1074.49 337.39 1072.67 339.827 1070.76 344C1068.63 348.75 1066.8 353.629 1065.28 358.61C1063.53 364.177 1061.97 370.003 1060.58 376.09C1059.35 381.153 1058.48 386.296 1057.97 391.48C1057.7 393.611 1056.92 395.646 1055.7 397.416C1054.48 399.187 1052.86 400.641 1050.97 401.66C1047.01 403.909 1042.53 405.078 1037.97 405.05C1033.45 405.1 1029 403.832 1025.19 401.4C1021.36 398.973 1019.62 395.147 1019.97 389.92C1020.31 384.007 1020.31 376.877 1019.97 368.53C1019.63 360.183 1019.3 351.4 1018.97 342.18C1018.62 332.967 1018.44 324.01 1018.45 315.31C1018.33 307.445 1018.99 299.587 1020.41 291.85Z" fill="#D96DFF"/>
<path d="M903.22 219.63C903.22 238.03 884.87 252.94 862.22 252.94C856.346 252.946 850.52 251.892 845.02 249.83C841.08 252.97 833.12 258.06 822.5 258.06C822.25 258.063 822.006 257.991 821.797 257.854C821.588 257.717 821.426 257.521 821.33 257.29C821.228 257.061 821.197 256.806 821.239 256.559C821.282 256.311 821.397 256.082 821.57 255.9C821.65 255.82 828.34 248.63 830.35 240.56C824.65 234.84 821.22 227.56 821.22 219.63C821.22 201.23 839.57 186.32 862.22 186.32C884.87 186.32 903.22 201.22 903.22 219.63Z" fill="#D96DFF"/>
<path d="M663.21 186.31C685.86 186.31 704.21 201.22 704.21 219.62C704.21 227.56 700.78 234.83 695.08 240.55C697.08 248.62 703.78 255.81 703.86 255.89C704.033 256.072 704.148 256.301 704.191 256.549C704.233 256.796 704.202 257.051 704.1 257.28C704.004 257.51 703.842 257.707 703.633 257.844C703.424 257.982 703.18 258.053 702.93 258.05C692.31 258.05 684.35 252.96 680.41 249.82C674.91 251.882 669.084 252.936 663.21 252.93C640.56 252.93 622.21 238.02 622.21 219.62C622.21 201.22 640.56 186.31 663.21 186.31Z" fill="#D96DFF"/>
<path d="M639 441.74C643.05 476.6 656.39 495.56 691.66 507.45C745.22 525.45 838.32 510.93 869.57 445.1" stroke="#D96DFF" stroke-width="30" stroke-miterlimit="10" stroke-linecap="round"/>
</svg>
